<?xml version="1.0" encoding="UTF-8"?>
<svg width="56px" height="56px" viewBox="0 0 56 56" version="1.1" xmlns="http://www.w3.org/2000/svg" xmlns:xlink="http://www.w3.org/1999/xlink">
    <!-- Generator: Sketch 64 (93537) - https://sketch.com -->
    <title>dashboard</title>
    <desc>Created with Sketch.</desc>
    <g id="Wireframes" stroke="none" stroke-width="1" fill="none" fill-rule="evenodd">
        <g id="User's-Dashboard--LeftNavOpen" transform="translate(-15.000000, -141.000000)" fill="#F47E17" fill-rule="nonzero">
            <g id="LeftNav">
                <g id="dashboard" transform="translate(15.000000, 141.000000)">
                    <path d="M53.2903226,0 L2.70967742,0 C1.21574194,0 0,1.21574194 0,2.70967742 L0,38.8387097 C0,40.3326452 1.21574194,41.5483871 2.70967742,41.5483871 L27.0967742,41.5483871 C27.0967742,49.5166452 33.580129,56 41.5483871,56 C49.5166452,56 56,49.5166452 56,41.5483871 L56,2.70967742 C56,1.21574194 54.7842581,0 53.2903226,0 Z M2.70967742,1.80645161 L53.2903226,1.80645161 C53.788,1.80645161 54.1935484,2.212 54.1935484,2.70967742 L54.1935484,7.22580645 L1.80645161,7.22580645 L1.80645161,2.70967742 C1.80645161,2.212 2.212,1.80645161 2.70967742,1.80645161 Z M40.6451613,41.1744516 L32.0030968,49.8165161 C30.0774194,47.5972903 28.9032258,44.7105806 28.9032258,41.5483871 C28.9032258,34.8807742 34.0940645,29.4153548 40.6451613,28.9492903 L40.6451613,41.1744516 Z M33.2802581,51.0936774 L41.5483871,42.8255484 L49.8165161,51.0936774 C47.5972903,53.0193548 44.7105806,54.1935484 41.5483871,54.1935484 C38.3861935,54.1935484 35.4994839,53.0193548 33.2802581,51.0936774 Z M51.0936774,49.8165161 L42.4516129,41.1744516 L42.4516129,28.9492903 C49.0027097,29.4153548 54.1935484,34.8807742 54.1935484,41.5483871 C54.1935484,44.7105806 53.0193548,47.5972903 51.0936774,49.8165161 Z M41.5483871,27.0967742 C34.1925161,27.0967742 28.1156129,32.6245161 27.2223226,39.7419355 L2.70967742,39.7419355 C2.212,39.7419355 1.80645161,39.3363871 1.80645161,38.8387097 L1.80645161,9.03225806 L54.1935484,9.03225806 L54.1935484,34.5673548 C51.7268387,30.1180645 46.9858065,27.0967742 41.5483871,27.0967742 Z" id="Shape"></path>
                    <path d="M32.9413287,41 C32.9413287,37.1416573 35.8436152,33.7153866 40,32.666811 L39.4719586,31 C34.4837144,32.2589835 31,36.3710278 31,41 L32.9413287,41 Z" id="Path"></path>
                    <path d="M31,44.2851532 C31.110306,44.8711705 31.2785829,45.4477612 31.5,46 L33,45.4281225 C32.81562,44.9685782 32.6763285,44.487824 32.5837359,44 L31,44.2851532 Z" id="Path"></path>
                    <path d="M50.5208333,39 L52,38.5605243 C51.8402778,38.0239013 51.6296296,37.4988435 51.3742284,37 L50,37.7016191 C50.212963,38.1171935 50.3881173,38.5543562 50.5208333,39 L50.5208333,39 Z" id="Path"></path>
                    <path d="M50.0554205,41.1897106 C50.0554205,41.4175471 50.0466699,41.6426275 50.0291687,41.8658705 L51.9688867,42 C51.9893048,41.7326596 52,41.4616445 52,41.1897106 C52,40.7919155 51.9776373,40.392283 51.932912,40 L50,40.1966008 C50.0359747,40.5227377 50.0554205,40.8543868 50.0554205,41.1897106 L50.0554205,41.1897106 Z" id="Path"></path>
                    <path d="M50,45.3359436 L51.4200627,46 C51.661442,45.4839468 51.8565831,44.9436179 52,44.3938919 L50.4827586,44 C50.3636364,44.4573218 50.2014107,44.9068128 50,45.3359436 Z" id="Path"></path>
                    <polygon id="Path" points="7 4 9 4 9 6 7 6"></polygon>
                    <polygon id="Path" points="4 4 6 4 6 6 4 6"></polygon>
                    <polygon id="Path" points="11 4 13 4 13 6 11 6"></polygon>
                    <path d="M19.3,11 L6.7,11 C5.2114,11 4,12.2498571 4,13.7857143 L4,21.2142857 C4,22.7501429 5.2114,24 6.7,24 L19.3,24 C20.7886,24 22,22.7501429 22,21.2142857 L22,13.7857143 C22,12.2498571 20.7886,11 19.3,11 Z M20.2,21.2142857 C20.2,21.7259286 19.7959,22.1428571 19.3,22.1428571 L6.7,22.1428571 C6.2041,22.1428571 5.8,21.7259286 5.8,21.2142857 L5.8,13.7857143 C5.8,13.2740714 6.2041,12.8571429 6.7,12.8571429 L19.3,12.8571429 C19.7959,12.8571429 20.2,13.2740714 20.2,13.7857143 L20.2,21.2142857 Z" id="Shape"></path>
                    <path d="M19.3,25 L6.7,25 C5.2114,25 4,26.2498571 4,27.7857143 L4,35.2142857 C4,36.7501429 5.2114,38 6.7,38 L19.3,38 C20.7886,38 22,36.7501429 22,35.2142857 L22,27.7857143 C22,26.2498571 20.7886,25 19.3,25 Z M20.2,35.2142857 C20.2,35.7259286 19.7959,36.1428571 19.3,36.1428571 L6.7,36.1428571 C6.2041,36.1428571 5.8,35.7259286 5.8,35.2142857 L5.8,27.7857143 C5.8,27.2740714 6.2041,26.8571429 6.7,26.8571429 L19.3,26.8571429 C19.7959,26.8571429 20.2,27.2740714 20.2,27.7857143 L20.2,35.2142857 Z" id="Shape"></path>
                    <polygon id="Path" points="13.4691367 18.0532776 10.5617266 15.2207985 6 19.6649582 7.37035933 21 10.5617266 17.8908821 13.4691367 20.7233612 19 15.3350418 17.6296407 14"></polygon>
                    <polygon id="Path" points="15.3333333 28 13.6666667 28 13.6666667 32 12 32 12 30 10.3333333 30 10.3333333 32 8.66666667 32 8.66666667 28 7 28 7 34 17 34 17 32 15.3333333 32"></polygon>
                    <polygon id="Path" points="25 13 52 13 52 15 25 15"></polygon>
                    <polygon id="Path" points="25 16 31 16 31 18 25 18"></polygon>
                    <polygon id="Path" points="32 16 52 16 52 18 32 18"></polygon>
                    <polygon id="Path" points="25 20 42 20 42 22 25 22"></polygon>
                    <polygon id="Path" points="43 20 45 20 45 22 43 22"></polygon>
                    <polygon id="Path" points="47 20 49 20 49 22 47 22"></polygon>
                    <polygon id="Path" points="50 20 52 20 52 22 50 22"></polygon>
                </g>
            </g>
        </g>
    </g>
</svg>