<?xml version="1.0" encoding="UTF-8"?>
<svg viewBox="0 0 56 56" version="1.1" xmlns="http://www.w3.org/2000/svg" xmlns:xlink="http://www.w3.org/1999/xlink">
    <!-- Generator: Sketch 64 (93537) - https://sketch.com -->
    <title>graph</title>
    <desc>Created with Sketch.</desc>
    <g id="Wireframes" stroke="none" stroke-width="1" fill="none" fill-rule="evenodd">
        <g id="User's-Dashboard--LeftNavOpen" transform="translate(-15.000000, -421.000000)" fill="#F47E17" fill-rule="nonzero">
            <g id="LeftNav">
                <g id="graph" transform="translate(15.000000, 421.000000)">
                    <path d="M1.15992293,56 L12.7591522,56 C13.3994297,56 13.9190751,55.4779376 13.9190751,54.8346821 L13.9190751,10.5526012 C13.9190751,9.90934566 13.3994297,9.38728324 12.7591522,9.38728324 L1.15992293,9.38728324 C0.519645472,9.38728324 0,9.90934566 0,10.5526012 L0,26.867052 C0,27.5103075 0.519645472,28.0323699 1.15992293,28.0323699 C1.80020039,28.0323699 2.31984586,27.5103075 2.31984586,26.867052 L2.31984586,11.7179191 L11.5992293,11.7179191 L11.5992293,46.6774566 L2.31984586,46.6774566 L2.31984586,33.8589595 C2.31984586,33.215704 1.80020039,32.6936416 1.15992293,32.6936416 C0.519645472,32.6936416 0,33.215704 0,33.8589595 L0,54.8346821 C0,55.4779376 0.519645472,56 1.15992293,56 Z M2.31984586,49.0080925 L11.5992293,49.0080925 L11.5992293,53.6693642 L2.31984586,53.6693642 L2.31984586,49.0080925 Z" id="Shape"></path>
                    <path d="M54.8400771,18.7745665 L43.2408478,18.7745665 C42.6005703,18.7745665 42.0809249,19.2957225 42.0809249,19.9378613 L42.0809249,31.5708092 C42.0809249,32.212948 42.6005703,32.734104 43.2408478,32.734104 C43.8811252,32.734104 44.4007707,32.212948 44.4007707,31.5708092 L44.4007707,21.1011561 L53.6801541,21.1011561 L53.6801541,46.6936416 L44.4007707,46.6936416 L44.4007707,38.550578 C44.4007707,37.9084393 43.8811252,37.3872832 43.2408478,37.3872832 C42.6005703,37.3872832 42.0809249,37.9084393 42.0809249,38.550578 L42.0809249,54.8367052 C42.0809249,55.4788439 42.6005703,56 43.2408478,56 L54.8400771,56 C55.4803545,56 56,55.4788439 56,54.8367052 L56,19.9378613 C56,19.2957225 55.4803545,18.7745665 54.8400771,18.7745665 Z M53.6801541,53.6734104 L44.4007707,53.6734104 L44.4007707,49.0202312 L53.6801541,49.0202312 L53.6801541,53.6734104 Z" id="Shape"></path>
                    <path d="M21.0404624,54.8333333 C21.0404624,55.4773333 21.5601079,56 22.2003854,56 L33.7996146,56 C34.4398921,56 34.9595376,55.4773333 34.9595376,54.8333333 L34.9595376,1.16666667 C34.9595376,0.522666667 34.4398921,0 33.7996146,0 L22.2003854,0 C21.5601079,0 21.0404624,0.522666667 21.0404624,1.16666667 L21.0404624,22.1666667 C21.0404624,22.8106667 21.5601079,23.3333333 22.2003854,23.3333333 C22.8406628,23.3333333 23.3603083,22.8106667 23.3603083,22.1666667 L23.3603083,2.33333333 L32.6396917,2.33333333 L32.6396917,46.6666667 L23.3603083,46.6666667 L23.3603083,29.1666667 C23.3603083,28.5226667 22.8406628,28 22.2003854,28 C21.5601079,28 21.0404624,28.5226667 21.0404624,29.1666667 L21.0404624,54.8333333 Z M23.3603083,49 L32.6396917,49 L32.6396917,53.6666667 L23.3603083,53.6666667 L23.3603083,49 Z" id="Shape"></path>
                    <circle id="Oval" cx="43.2138728" cy="35.1213873" r="1.13294798"></circle>
                    <circle id="Oval" cx="22.1734104" cy="25.734104" r="1.13294798"></circle>
                    <circle id="Oval" cx="1.13294798" cy="30.265896" r="1.13294798"></circle>
                </g>
            </g>
        </g>
    </g>
</svg>